<svg xmlns="http://www.w3.org/2000/svg" width="281" height="58" viewBox="0 0 281 58" fill="none"><path d="M85.1863 40.0871C86.0165 40.0871 86.6958 40.0242 87.2241 39.8984C87.7776 39.7474 88.2179 39.5587 88.545 39.3323C88.872 39.0807 89.0985 38.7914 89.2243 38.4643C89.3501 38.1373 89.413 37.7725 89.413 37.3699C89.413 36.5145 89.0104 35.8101 88.2053 35.2566C87.4002 34.6779 86.0165 34.0615 84.0541 33.4074C83.1987 33.1055 82.3433 32.7659 81.4879 32.3885C80.6325 31.9859 79.8652 31.4953 79.1859 30.9167C78.5066 30.3129 77.9531 29.5958 77.5254 28.7656C77.0977 27.9102 76.8838 26.8787 76.8838 25.6711C76.8838 24.4634 77.1103 23.3816 77.5631 22.4256C78.016 21.4444 78.6575 20.6141 79.4878 19.9348C80.318 19.2556 81.3244 18.7398 82.5068 18.3876C83.6893 18.0102 85.0227 17.8215 86.5071 17.8215C88.2682 17.8215 89.7903 18.0102 91.0734 18.3876C92.3565 18.765 93.4132 19.1801 94.2435 19.6329L92.5452 24.2747C91.8156 23.8974 90.998 23.5703 90.0922 23.2935C89.2117 22.9916 88.1424 22.8407 86.8845 22.8407C85.4756 22.8407 84.4567 23.042 83.8277 23.4445C83.2239 23.8219 82.922 24.4131 82.922 25.2182C82.922 25.6962 83.0352 26.0988 83.2616 26.4258C83.488 26.7529 83.8025 27.0548 84.2051 27.3315C84.6328 27.5831 85.1108 27.8221 85.6391 28.0486C86.1926 28.2498 86.7964 28.4637 87.4506 28.6901C88.8091 29.1933 89.9916 29.6965 90.998 30.1997C92.0043 30.6777 92.8346 31.2437 93.4887 31.8979C94.168 32.552 94.6712 33.3194 94.9982 34.1999C95.3253 35.0805 95.4888 36.1497 95.4888 37.4077C95.4888 39.8481 94.6334 41.7476 92.9226 43.1061C91.2118 44.4396 88.633 45.1063 85.1863 45.1063C84.029 45.1063 82.9849 45.0308 82.054 44.8798C81.1231 44.7541 80.2929 44.5905 79.5633 44.3893C78.8588 44.188 78.2424 43.9741 77.7141 43.7477C77.2109 43.5213 76.7832 43.3074 76.431 43.1061L78.0915 38.4266C78.8714 38.8543 79.8274 39.2443 80.9596 39.5965C82.1169 39.9236 83.5258 40.0871 85.1863 40.0871ZM110.849 34.8037C110.849 33.0678 110.46 31.684 109.68 30.6525C108.9 29.5958 107.742 29.0675 106.208 29.0675C105.704 29.0675 105.239 29.0927 104.811 29.143C104.384 29.1681 104.031 29.2059 103.755 29.2562V39.4078C104.107 39.6342 104.56 39.8229 105.113 39.9739C105.692 40.1248 106.271 40.2003 106.849 40.2003C109.516 40.2003 110.849 38.4014 110.849 34.8037ZM116.586 34.6528C116.586 36.1875 116.397 37.5838 116.02 38.8417C115.642 40.0997 115.089 41.1815 114.359 42.0872C113.63 42.9929 112.724 43.6974 111.642 44.2006C110.56 44.7037 109.315 44.9553 107.906 44.9553C107.126 44.9553 106.396 44.8798 105.717 44.7289C105.038 44.5779 104.384 44.3641 103.755 44.0873V51.5595H98.1317V25.4069C98.6349 25.2559 99.2135 25.1176 99.8676 24.9918C100.522 24.8408 101.201 24.715 101.906 24.6144C102.635 24.5138 103.365 24.4383 104.094 24.388C104.849 24.3125 105.566 24.2747 106.245 24.2747C107.881 24.2747 109.34 24.5263 110.623 25.0295C111.906 25.5075 112.988 26.1994 113.869 27.1051C114.749 27.9857 115.416 29.0675 115.869 30.3506C116.347 31.6337 116.586 33.0678 116.586 34.6528ZM126.983 40.6532C127.537 40.6532 128.065 40.6406 128.568 40.6154C129.071 40.5903 129.474 40.5525 129.776 40.5022V36.2378C129.549 36.1875 129.21 36.1371 128.757 36.0868C128.304 36.0365 127.889 36.0114 127.512 36.0114C126.983 36.0114 126.48 36.0491 126.002 36.1246C125.549 36.1749 125.147 36.2881 124.794 36.4642C124.442 36.6403 124.165 36.8793 123.964 37.1812C123.763 37.4831 123.662 37.8605 123.662 38.3134C123.662 39.1939 123.952 39.8103 124.53 40.1626C125.134 40.4896 125.952 40.6532 126.983 40.6532ZM126.53 24.1993C128.191 24.1993 129.575 24.388 130.682 24.7653C131.789 25.1427 132.669 25.6836 133.323 26.3881C134.003 27.0925 134.481 27.9479 134.757 28.9543C135.034 29.9606 135.172 31.0802 135.172 32.313V44.0119C134.367 44.188 133.248 44.3893 131.814 44.6157C130.38 44.8673 128.644 44.9931 126.606 44.9931C125.323 44.9931 124.153 44.8798 123.096 44.6534C122.065 44.427 121.171 44.0622 120.417 43.559C119.662 43.0307 119.083 42.3514 118.681 41.5211C118.278 40.6909 118.077 39.672 118.077 38.4643C118.077 37.307 118.303 36.3258 118.756 35.5208C119.234 34.7157 119.863 34.0741 120.643 33.5961C121.423 33.1181 122.316 32.7784 123.323 32.5772C124.329 32.3507 125.373 32.2375 126.455 32.2375C127.184 32.2375 127.826 32.2753 128.38 32.3507C128.958 32.4011 129.424 32.4765 129.776 32.5772V32.0488C129.776 31.0928 129.486 30.3254 128.908 29.7468C128.329 29.1681 127.323 28.8788 125.889 28.8788C124.933 28.8788 123.989 28.9543 123.058 29.1052C122.128 29.231 121.322 29.4197 120.643 29.6713L119.926 25.1427C120.253 25.0421 120.656 24.9415 121.134 24.8408C121.637 24.715 122.178 24.6144 122.756 24.5389C123.335 24.4383 123.939 24.3628 124.568 24.3125C125.222 24.237 125.876 24.1993 126.53 24.1993ZM137.804 34.6528C137.804 33.2187 138.03 31.8727 138.483 30.6148C138.961 29.3317 139.641 28.2247 140.521 27.2938C141.402 26.3378 142.471 25.583 143.729 25.0295C144.987 24.476 146.421 24.1993 148.031 24.1993C149.088 24.1993 150.056 24.2999 150.937 24.5012C151.818 24.6773 152.673 24.9415 153.503 25.2937L152.333 29.7845C151.805 29.5833 151.226 29.4072 150.597 29.2562C149.968 29.1052 149.264 29.0298 148.484 29.0298C146.824 29.0298 145.578 29.5455 144.748 30.577C143.943 31.6086 143.54 32.9671 143.54 34.6528C143.54 36.4391 143.918 37.8228 144.672 38.804C145.452 39.7852 146.798 40.2758 148.71 40.2758C149.39 40.2758 150.119 40.2129 150.899 40.0871C151.679 39.9613 152.396 39.76 153.05 39.4833L153.843 44.0873C153.189 44.3641 152.371 44.6031 151.39 44.8044C150.409 45.0056 149.327 45.1063 148.144 45.1063C146.333 45.1063 144.773 44.8421 143.465 44.3138C142.157 43.7603 141.075 43.0181 140.219 42.0872C139.389 41.1563 138.773 40.0619 138.37 38.804C137.993 37.5209 137.804 36.1371 137.804 34.6528ZM154.205 34.8037C154.205 33.0426 154.47 31.5079 154.998 30.1997C155.551 28.8662 156.268 27.7592 157.149 26.8787C158.03 25.9981 159.036 25.3314 160.168 24.8786C161.325 24.4257 162.508 24.1993 163.716 24.1993C166.533 24.1993 168.76 25.0672 170.395 26.8032C172.031 28.514 172.848 31.0425 172.848 34.3886C172.848 34.7157 172.836 35.0805 172.81 35.483C172.785 35.8604 172.76 36.2 172.735 36.5019H159.979C160.105 37.6593 160.646 38.5776 161.602 39.2568C162.558 39.9361 163.841 40.2758 165.451 40.2758C166.483 40.2758 167.489 40.1877 168.471 40.0116C169.477 39.8103 170.295 39.5713 170.924 39.2946L171.678 43.8609C171.376 44.0119 170.974 44.1628 170.471 44.3138C169.967 44.4647 169.401 44.5905 168.772 44.6912C168.169 44.817 167.514 44.9176 166.81 44.9931C166.106 45.0685 165.401 45.1063 164.697 45.1063C162.91 45.1063 161.351 44.8421 160.017 44.3138C158.709 43.7854 157.614 43.0684 156.734 42.1627C155.879 41.2318 155.237 40.1374 154.809 38.8795C154.407 37.6215 154.205 36.2629 154.205 34.8037ZM167.414 32.6526C167.389 32.1746 167.301 31.7092 167.15 31.2563C167.024 30.8035 166.81 30.4009 166.508 30.0487C166.231 29.6965 165.867 29.4072 165.414 29.1807C164.986 28.9543 164.445 28.8411 163.791 28.8411C163.162 28.8411 162.621 28.9543 162.168 29.1807C161.715 29.382 161.338 29.6587 161.036 30.011C160.734 30.3632 160.495 30.7783 160.319 31.2563C160.168 31.7092 160.055 32.1746 159.979 32.6526H167.414ZM193.604 21.2179C193.906 22.2495 194.233 23.4193 194.585 24.7276C194.962 26.0107 195.352 27.3441 195.755 28.7279C196.182 30.1116 196.61 31.4953 197.038 32.8791C197.466 34.2628 197.881 35.5459 198.283 36.7284C198.61 35.4453 198.937 34.049 199.264 32.5394C199.617 31.0299 199.944 29.47 200.246 27.8599C200.547 26.2497 200.837 24.6521 201.114 23.0671C201.415 21.457 201.692 19.9097 201.944 18.4253H208.057C207.177 22.8029 206.158 27.2435 205.001 31.7469C203.868 36.2504 202.636 40.5274 201.302 44.5779H195.906C195.025 42.1627 194.17 39.6342 193.339 36.9925C192.509 34.3257 191.692 31.6589 190.886 28.992C190.081 31.6589 189.276 34.3257 188.471 36.9925C187.666 39.6342 186.823 42.1627 185.943 44.5779H180.546C179.213 40.5274 177.967 36.2504 176.81 31.7469C175.678 27.2435 174.672 22.8029 173.791 18.4253H180.169C180.42 19.9097 180.697 21.457 180.999 23.0671C181.301 24.6521 181.615 26.2497 181.943 27.8599C182.27 29.47 182.597 31.0299 182.924 32.5394C183.276 34.049 183.628 35.4453 183.98 36.7284C184.433 35.4956 184.874 34.1873 185.301 32.8036C185.729 31.4199 186.144 30.0361 186.547 28.6524C186.949 27.2686 187.314 25.9352 187.641 24.6521C187.993 23.369 188.308 22.2243 188.584 21.2179H193.604ZM209.953 44.5779V16.1988L215.576 15.293V24.8031C215.954 24.6773 216.432 24.5641 217.011 24.4634C217.614 24.3376 218.193 24.2747 218.746 24.2747C220.357 24.2747 221.69 24.5012 222.747 24.954C223.829 25.3817 224.684 25.9981 225.313 26.8032C225.967 27.6083 226.42 28.5643 226.672 29.6713C226.948 30.7783 227.087 32.0111 227.087 33.3697V44.5779H221.464V34.049C221.464 32.2375 221.225 30.9544 220.747 30.1997C220.294 29.4449 219.438 29.0675 218.18 29.0675C217.677 29.0675 217.199 29.1178 216.746 29.2185C216.319 29.2939 215.929 29.382 215.576 29.4826V44.5779H209.953ZM238.252 40.6532C238.806 40.6532 239.334 40.6406 239.837 40.6154C240.34 40.5903 240.743 40.5525 241.045 40.5022V36.2378C240.818 36.1875 240.479 36.1371 240.026 36.0868C239.573 36.0365 239.158 36.0114 238.78 36.0114C238.252 36.0114 237.749 36.0491 237.271 36.1246C236.818 36.1749 236.416 36.2881 236.063 36.4642C235.711 36.6403 235.434 36.8793 235.233 37.1812C235.032 37.4831 234.931 37.8605 234.931 38.3134C234.931 39.1939 235.221 39.8103 235.799 40.1626C236.403 40.4896 237.221 40.6532 238.252 40.6532ZM237.799 24.1993C239.46 24.1993 240.844 24.388 241.951 24.7653C243.058 25.1427 243.938 25.6836 244.592 26.3881C245.271 27.0925 245.75 27.9479 246.026 28.9543C246.303 29.9606 246.441 31.0802 246.441 32.313V44.0119C245.636 44.188 244.517 44.3893 243.083 44.6157C241.649 44.8673 239.913 44.9931 237.875 44.9931C236.592 44.9931 235.422 44.8798 234.365 44.6534C233.334 44.427 232.44 44.0622 231.686 43.559C230.931 43.0307 230.352 42.3514 229.95 41.5211C229.547 40.6909 229.346 39.672 229.346 38.4643C229.346 37.307 229.572 36.3258 230.025 35.5208C230.503 34.7157 231.132 34.0741 231.912 33.5961C232.692 33.1181 233.585 32.7784 234.592 32.5772C235.598 32.3507 236.642 32.2375 237.724 32.2375C238.453 32.2375 239.095 32.2753 239.648 32.3507C240.227 32.4011 240.693 32.4765 241.045 32.5772V32.0488C241.045 31.0928 240.755 30.3254 240.177 29.7468C239.598 29.1681 238.592 28.8788 237.158 28.8788C236.202 28.8788 235.258 28.9543 234.327 29.1052C233.397 29.231 232.591 29.4197 231.912 29.6713L231.195 25.1427C231.522 25.0421 231.925 24.9415 232.403 24.8408C232.906 24.715 233.447 24.6144 234.025 24.5389C234.604 24.4383 235.208 24.3628 235.837 24.3125C236.491 24.237 237.145 24.1993 237.799 24.1993ZM257.942 44.9553C256.306 44.9302 254.973 44.7541 253.941 44.427C252.935 44.0999 252.13 43.6471 251.526 43.0684C250.947 42.4646 250.545 41.7476 250.318 40.9173C250.117 40.0619 250.016 39.1059 250.016 38.0492V16.1988L255.639 15.293V36.9171C255.639 37.4202 255.677 37.8731 255.753 38.2756C255.828 38.6782 255.967 39.0178 256.168 39.2946C256.394 39.5713 256.709 39.7978 257.111 39.9739C257.514 40.15 258.055 40.2632 258.734 40.3135L257.942 44.9553ZM259.504 34.8037C259.504 33.0426 259.768 31.5079 260.297 30.1997C260.85 28.8662 261.567 27.7592 262.448 26.8787C263.328 25.9981 264.335 25.3314 265.467 24.8786C266.624 24.4257 267.807 24.1993 269.014 24.1993C271.832 24.1993 274.059 25.0672 275.694 26.8032C277.329 28.514 278.147 31.0425 278.147 34.3886C278.147 34.7157 278.134 35.0805 278.109 35.483C278.084 35.8604 278.059 36.2 278.034 36.5019H265.278C265.404 37.6593 265.945 38.5776 266.901 39.2568C267.857 39.9361 269.14 40.2758 270.75 40.2758C271.782 40.2758 272.788 40.1877 273.769 40.0116C274.776 39.8103 275.593 39.5713 276.222 39.2946L276.977 43.8609C276.675 44.0119 276.272 44.1628 275.769 44.3138C275.266 44.4647 274.7 44.5905 274.071 44.6912C273.467 44.817 272.813 44.9176 272.109 44.9931C271.404 45.0685 270.7 45.1063 269.995 45.1063C268.209 45.1063 266.649 44.8421 265.316 44.3138C264.008 43.7854 262.913 43.0684 262.033 42.1627C261.177 41.2318 260.536 40.1374 260.108 38.8795C259.705 37.6215 259.504 36.2629 259.504 34.8037ZM272.713 32.6526C272.687 32.1746 272.599 31.7092 272.448 31.2563C272.323 30.8035 272.109 30.4009 271.807 30.0487C271.53 29.6965 271.165 29.4072 270.712 29.1807C270.285 28.9543 269.744 28.8411 269.09 28.8411C268.461 28.8411 267.92 28.9543 267.467 29.1807C267.014 29.382 266.637 29.6587 266.335 30.011C266.033 30.3632 265.794 30.7783 265.618 31.2563C265.467 31.7092 265.354 32.1746 265.278 32.6526H272.713Z" fill="#270A66"></path><g clip-path="url(#clip0_604_4919)"><path fill-rule="evenodd" clip-rule="evenodd" d="M64.8749 57.0917H57.0172C53.1543 46.2594 44.4989 41.3672 39.5285 39.3844C37.9766 38.6227 36.3461 38.033 34.6661 37.6255C35.5252 35.2638 39.1334 27.1936 28.7959 19.1181C32.8766 28.5252 24.844 30.2864 28.0227 36.9006C19.704 39.0913 23.2401 46.7803 14.5349 48.2407C19.6273 52.1419 27.6185 49.9927 31.7084 43.3845C31.8848 43.4482 43.4251 47.6401 42.9756 57.0886H-0.000732422L16.2186 28.997L32.4417 0.908325L64.8749 57.0917Z" fill="#6319FF"></path></g><defs><clipPath id="clip0_604_4919"><rect width="64.8748" height="56.1834" fill="white" transform="translate(0 0.908325)"></rect></clipPath></defs></svg>